<svg xmlns="http://www.w3.org/2000/svg" width="40.002" height="40.028" viewBox="0 0 40.002 40.028">
  <g id="Group_1481" data-name="Group 1481" transform="translate(-750 -343)">
    <g id="Group_1467" data-name="Group 1467" transform="translate(750 343)">
      <g id="Group_1466" data-name="Group 1466" transform="translate(0 0)">
        <path id="Path_4241" data-name="Path 4241"
              d="M37.758,10.623a11.957,11.957,0,0,0,.11-9.935A1.28,1.28,0,0,0,36.461.03a1.213,1.213,0,0,0-.945,1.183c0,.013-.193,1.345-2.6,3.47a19.785,19.785,0,0,0-25.5,0c-2.368-2.09-2.593-3.408-2.6-3.408A1.25,1.25,0,0,0,2.462.688a11.957,11.957,0,0,0,.11,9.935,19.979,19.979,0,1,0,37.594,9.4A19.867,19.867,0,0,0,37.758,10.623Zm-17.593,26.9A17.465,17.465,0,0,1,5.019,11.3a.928.928,0,0,0,.04-.118,1.088,1.088,0,0,0,.083-.245,1.011,1.011,0,0,0,.028-.228,1.074,1.074,0,0,0-.013-.238,1.34,1.34,0,0,0-.068-.243,1.024,1.024,0,0,0-.035-.125,9.968,9.968,0,0,1-1.11-5.4A17.184,17.184,0,0,0,6.639,7.3c.043.033.093.043.135.07A1.248,1.248,0,0,0,7,7.491a1.624,1.624,0,0,0,.465.07,1.1,1.1,0,0,0,.22-.038,1.286,1.286,0,0,0,.235-.075,1.133,1.133,0,0,0,.2-.125.93.93,0,0,0,.145-.088,17.37,17.37,0,0,1,23.786,0,1.429,1.429,0,0,0,.145.093,1.065,1.065,0,0,0,.188.118,1.311,1.311,0,0,0,.238.075,1.271,1.271,0,0,0,.213.04c.028,0,.05.015.075.015a1.5,1.5,0,0,0,.153-.03,1.128,1.128,0,0,0,.255-.053,1.073,1.073,0,0,0,.213-.11,1.3,1.3,0,0,0,.155-.08,17.3,17.3,0,0,0,2.7-2.593,9.964,9.964,0,0,1-1.11,5.4,1.165,1.165,0,0,0-.035.125,1.374,1.374,0,0,0-.068.24,1.264,1.264,0,0,0-.015.238,1.443,1.443,0,0,0,.028.23,1.412,1.412,0,0,0,.083.245,1.086,1.086,0,0,0,.04.118A17.462,17.462,0,0,1,20.165,37.527Z"
              transform="translate(-0.164 0)" fill="#fff"/>
      </g>
    </g>
    <g id="Group_1469" data-name="Group 1469" transform="translate(758.75 354.276)">
      <g id="Group_1468" data-name="Group 1468">
        <path id="Path_4242" data-name="Path 4242"
              d="M119.515,148.906l-5.323-4.308a1.25,1.25,0,1,0-1.57,1.945l2.585,2.093a3.737,3.737,0,1,0,4.308.27Zm-2.358,4.165a1.25,1.25,0,1,1,0-2.5,1.229,1.229,0,0,1,.783.275l0,0a1.24,1.24,0,0,1,.465.973A1.254,1.254,0,0,1,117.158,153.072Z"
              transform="translate(-112.157 -144.321)" fill="#fff"/>
      </g>
    </g>
    <g id="Group_1471" data-name="Group 1471" transform="translate(772.501 354.275)">
      <g id="Group_1470" data-name="Group 1470">
        <path id="Path_4243" data-name="Path 4243"
              d="M296.637,144.781a1.25,1.25,0,0,0-1.758-.185l-5.32,4.305h0l0,0a3.76,3.76,0,1,0,4.313-.273l2.585-2.093A1.248,1.248,0,0,0,296.637,144.781Zm-4.723,8.288a1.25,1.25,0,0,1-.785-2.223l0,0a1.229,1.229,0,0,1,.783-.275,1.25,1.25,0,1,1,0,2.5Z"
              transform="translate(-288.164 -144.318)" fill="#fff"/>
      </g>
    </g>
    <g id="Group_1473" data-name="Group 1473" transform="translate(779.204 375.527) rotate(180)">
      <g id="Group_1472" data-name="Group 1472">
        <path id="Path_4244" data-name="Path 4244"
              d="M156.406,342.51a1.251,1.251,0,0,0-1.768,0,10.234,10.234,0,0,1-14.141,0,1.25,1.25,0,0,0-1.768,1.768,12.494,12.494,0,0,0,17.676,0A1.251,1.251,0,0,0,156.406,342.51Z"
              transform="translate(-138.364 -342.144)" fill="#fff"/>
      </g>
    </g>
  </g>
</svg>
